# xmcd
#
# Track frame offsets:
#	150
#	19622
#	33745
#	64270
#	88287
#	110317
#	135307
#	149240
#	160555
#	185350
#	193892
#	212805
#	231757
#	249615
#	262009
#	284945
#
# Disc length: 4193 seconds
#
# Revision: 2
# Processed by: cddbd v1.5.2PL0 Copyright (c) Steve Scherf et al.
# Submitted via: EasyCDDAExtractor 11.5.3.1
#
DISCID=fb105f10
DTITLE=Silverblood - Imperfection
DYEAR=1995
DGENRE=Electronic
TTITLE0=Valsa da Lua
TTITLE1=Chaud-Froid
TTITLE2=Eletric Rainheart Bleeding
TTITLE3=Squeamish
TTITLE4=Opening Crows
TTITLE5=Silverblood
TTITLE6=O Gigante que achava que as estrelas eram de vidro e seu gatinho
TTITLE7=Splinters
TTITLE8=Little Legs II
TTITLE9=Taxidermia
TTITLE10=Fondle Ciel
TTITLE11=Életricité
TTITLE12=Celefan Sea Horses
TTITLE13=Gardinenpredigt
TTITLE14=Joy Delerium Volume Device
TTITLE15=Liquid Mercury
EXTD=
EXTT0=
EXTT1=
EXTT2=
EXTT3=
EXTT4=
EXTT5=
EXTT6=
EXTT7=
EXTT8=
EXTT9=
EXTT10=
EXTT11=
EXTT12=
EXTT13=
EXTT14=
EXTT15=
PLAYORDER=
